<svg width="36" height="36" viewBox="0 0 36 36" fill="none" xmlns="http://www.w3.org/2000/svg">
<circle cx="18" cy="18" r="17" fill="black" stroke="white" stroke-width="2"/>
<path fill-rule="evenodd" clip-rule="evenodd" d="M8.00579 25.7745L10.2274 27.9961L12.449 25.7745L10.2274 23.5528L8.00579 25.7745Z" fill="white"/>
<path fill-rule="evenodd" clip-rule="evenodd" d="M28 10.2217L25.7784 8L23.5568 10.2217L25.7784 12.4433L28 10.2217Z" fill="white"/>
<path fill-rule="evenodd" clip-rule="evenodd" d="M18.0022 22.4405L13.559 17.9971L18.0022 13.5538L22.4455 17.9971L18.0022 22.4405ZM26.8887 17.9971L18.0022 9.11049L9.11577 17.9971L18.0022 26.8837L26.8887 17.9971Z" fill="white"/>
<path fill-rule="evenodd" clip-rule="evenodd" d="M23.5546 25.7784L25.7762 28L27.9979 25.7784L25.7762 23.5567L23.5546 25.7784Z" fill="white"/>
<path fill-rule="evenodd" clip-rule="evenodd" d="M12.4432 10.2255L10.2216 8.00388L8 10.2255L10.2216 12.4472L12.4432 10.2255Z" fill="white"/>
</svg>