<svg width="170" height="64" viewBox="0 0 170 64" fill="none" xmlns="http://www.w3.org/2000/svg">
<g clip-path="url(#clip0-854264)">
<path fill-rule="evenodd" clip-rule="evenodd" d="M60.9912 23.3924C59.5055 23.3924 58.297 22.1829 58.297 20.6962C58.297 19.2095 59.5055 18 60.9912 18C62.4769 18 63.6856 19.2095 63.6856 20.6962C63.6856 22.1829 62.4769 23.3924 60.9912 23.3924ZM60.9912 19.4691C60.315 19.4691 59.765 20.0196 59.765 20.6962C59.765 21.3728 60.315 21.9233 60.9912 21.9233C61.6674 21.9233 62.2176 21.3728 62.2176 20.6962C62.2176 20.0196 61.6674 19.4691 60.9912 19.4691Z" fill="#F8F8FD"/>
<path d="M60.297 23.8384C60.5285 23.8918 60.7695 23.92 61.0169 23.92C61.2644 23.92 61.5055 23.8918 61.737 23.8383V28.8817C61.5055 28.8282 61.2644 28.8 61.0169 28.8C60.7694 28.8 60.5285 28.8282 60.297 28.8816V23.8384Z" fill="#F8F8FD"/>
<path d="M58.6781 29.8182L54.3088 27.2956C54.2393 27.5228 54.1432 27.7457 54.0195 27.9601C53.8957 28.1744 53.7508 28.369 53.5888 28.5427L57.9565 31.0644C58.1006 30.594 58.3504 30.1693 58.6781 29.8182Z" fill="#F8F8FD"/>
<path d="M57.9565 32.9356L53.5888 35.4573C53.7508 35.6311 53.8958 35.8257 54.0195 36.0401C54.1433 36.2544 54.2393 36.4772 54.3088 36.7044L58.678 34.1818C58.3503 33.8307 58.1005 33.406 57.9565 32.9356Z" fill="#F8F8FD"/>
<path d="M60.297 35.1184V40.1617C60.5285 40.1082 60.7696 40.08 61.0171 40.08C61.2645 40.08 61.5055 40.1082 61.737 40.1616V35.1183C61.5055 35.1718 61.2644 35.2 61.0169 35.2C60.7694 35.2 60.5285 35.1718 60.297 35.1184Z" fill="#F8F8FD"/>
<path d="M63.3559 34.1818L67.7252 36.7044C67.7947 36.4772 67.8908 36.2543 68.0145 36.0399C68.1383 35.8256 68.2832 35.631 68.4452 35.4573L64.0775 32.9356C63.9334 33.406 63.6836 33.8307 63.3559 34.1818Z" fill="#F8F8FD"/>
<path d="M64.0775 31.0644L68.4452 28.5427C68.2832 28.3689 68.1382 28.1743 68.0144 27.9599C67.8907 27.7456 67.7947 27.5228 67.7252 27.2956L63.3559 29.8183C63.6836 30.1693 63.9334 30.594 64.0775 31.0644Z" fill="#F8F8FD"/>
<path fill-rule="evenodd" clip-rule="evenodd" d="M53.5497 27.7185C52.8068 29.0051 51.1552 29.4471 49.8676 28.7037C48.5801 27.9603 48.1369 26.309 48.8797 25.0223C49.6226 23.7357 51.2744 23.2937 52.5619 24.037C53.8495 24.7804 54.2925 26.4319 53.5497 27.7185ZM50.152 25.7569C49.8139 26.3425 50.0156 27.0941 50.6016 27.4324C51.1876 27.7707 51.9393 27.5696 52.2774 26.984C52.6155 26.3984 52.4139 25.6467 51.8279 25.3084C51.2419 24.97 50.4901 25.1712 50.152 25.7569Z" fill="#F8F8FD"/>
<path fill-rule="evenodd" clip-rule="evenodd" d="M53.5755 36.3261C54.3183 37.6128 53.8752 39.2641 52.5876 40.0075C51.3001 40.7508 49.6484 40.309 48.9055 39.0223C48.1627 37.7357 48.6058 36.0842 49.8933 35.3409C51.1809 34.5975 52.8326 35.0395 53.5755 36.3261ZM50.1778 38.2878C50.5159 38.8734 51.2676 39.0745 51.8536 38.7362C52.4396 38.3979 52.6413 37.6463 52.3032 37.0607C51.9651 36.4751 51.2133 36.2739 50.6273 36.6122C50.0413 36.9505 49.8397 37.7022 50.1778 38.2878Z" fill="#F8F8FD"/>
<path fill-rule="evenodd" clip-rule="evenodd" d="M61.0428 40.6076C62.5284 40.6076 63.737 41.8171 63.737 43.3038C63.737 44.7905 62.5284 46 61.0428 46C59.5571 46 58.3484 44.7905 58.3484 43.3038C58.3484 41.8171 59.5571 40.6076 61.0428 40.6076ZM61.0428 44.5309C61.719 44.5309 62.269 43.9804 62.269 43.3038C62.269 42.6272 61.719 42.0767 61.0428 42.0767C60.3666 42.0767 59.8164 42.6272 59.8164 43.3038C59.8164 43.9804 60.3666 44.5309 61.0428 44.5309Z" fill="#F8F8FD"/>
<path fill-rule="evenodd" clip-rule="evenodd" d="M68.4843 36.2815C69.2271 34.9949 70.8788 34.5529 72.1664 35.2963C73.4539 36.0397 73.8971 37.691 73.1542 38.9777C72.4114 40.2643 70.7596 40.7063 69.4721 39.963C68.1845 39.2196 67.7415 37.5681 68.4843 36.2815ZM71.882 38.2431C72.2201 37.6575 72.0184 36.9059 71.4324 36.5676C70.8464 36.2293 70.0947 36.4304 69.7565 37.016C69.4184 37.6016 69.6201 38.3533 70.2061 38.6916C70.7921 39.03 71.5439 38.8288 71.882 38.2431Z" fill="#F8F8FD"/>
<path fill-rule="evenodd" clip-rule="evenodd" d="M68.4585 27.6739C67.7157 26.3872 68.1588 24.7359 69.4464 23.9925C70.7339 23.2492 72.3856 23.691 73.1285 24.9777C73.8713 26.2643 73.4282 27.9158 72.1407 28.6591C70.8531 29.4025 69.2014 28.9605 68.4585 27.6739ZM71.8562 25.7122C71.5181 25.1266 70.7664 24.9255 70.1804 25.2638C69.5944 25.6021 69.3927 26.3537 69.7308 26.9393C70.0689 27.5249 70.8207 27.7261 71.4067 27.3878C71.9927 27.0495 72.1943 26.2978 71.8562 25.7122Z" fill="#F8F8FD"/>
<path fill-rule="evenodd" clip-rule="evenodd" d="M60.9912 30.7491C60.315 30.7491 59.765 31.2996 59.765 31.9762C59.765 32.6528 60.315 33.2033 60.9912 33.2033C61.6674 33.2033 62.2176 32.6528 62.2176 31.9762C62.2176 31.2996 61.6674 30.7491 60.9912 30.7491ZM60.9912 34.6724C59.5055 34.6724 58.297 33.4629 58.297 31.9762C58.297 30.4895 59.5055 29.28 60.9912 29.28C62.4769 29.28 63.6856 30.4895 63.6856 31.9762C63.6856 33.4629 62.4769 34.6724 60.9912 34.6724Z" fill="#F8F8FD"/>
</g>
<path d="M86.7146 39.5L86.7146 24.2273H89.0189L89.0189 30.8643H96.6329L96.6329 24.2273H98.9447L98.9447 39.5H96.6329L96.6329 32.8406H89.0189L89.0189 39.5H86.7146ZM109.231 34.7496L109.231 28.0455H111.468L111.468 39.5H109.275L109.275 37.5163H109.156C108.892 38.1278 108.47 38.6374 107.888 39.0451C107.312 39.4478 106.593 39.6491 105.733 39.6491C104.997 39.6491 104.346 39.4876 103.779 39.1644C103.217 38.8363 102.775 38.3516 102.452 37.7102C102.134 37.0689 101.975 36.2759 101.975 35.3313L101.975 28.0455H104.204L104.204 35.0629C104.204 35.8434 104.421 36.4648 104.853 36.9272C105.286 37.3896 105.847 37.6207 106.538 37.6207C106.956 37.6207 107.371 37.5163 107.784 37.3075C108.201 37.0987 108.547 36.783 108.82 36.3604C109.099 35.9379 109.236 35.4009 109.231 34.7496ZM114.496 39.5L114.496 24.2273H116.726L116.726 29.9023H116.86C116.989 29.6637 117.175 29.3878 117.419 29.0746C117.663 28.7614 118.001 28.4879 118.433 28.2543C118.866 28.0156 119.438 27.8963 120.148 27.8963C121.073 27.8963 121.898 28.13 122.624 28.5973C123.35 29.0646 123.919 29.7383 124.332 30.6183C124.75 31.4982 124.958 32.5572 124.958 33.7951C124.958 35.033 124.752 36.0945 124.34 36.9794C123.927 37.8594 123.36 38.538 122.639 39.0153C121.918 39.4876 121.096 39.7237 120.171 39.7237C119.475 39.7237 118.906 39.6069 118.463 39.3732C118.026 39.1396 117.683 38.8661 117.434 38.5529C117.185 38.2397 116.994 37.9613 116.86 37.7177H116.673L116.673 39.5H114.496ZM116.681 33.7727C116.681 34.5781 116.798 35.2841 117.031 35.8906C117.265 36.4972 117.603 36.9719 118.045 37.315C118.488 37.6531 119.03 37.8221 119.671 37.8221C120.337 37.8221 120.894 37.6456 121.342 37.2926C121.789 36.9347 122.127 36.4499 122.356 35.8384C122.59 35.2269 122.706 34.5384 122.706 33.7727C122.706 33.017 122.592 32.3384 122.363 31.7369C122.14 31.1353 121.802 30.6605 121.349 30.3125C120.902 29.9645 120.342 29.7905 119.671 29.7905C119.025 29.7905 118.478 29.957 118.031 30.2901C117.588 30.6232 117.253 31.0881 117.024 31.6847C116.795 32.2812 116.681 32.9773 116.681 33.7727Z" fill="#E6E6E6"/>
<defs>
<clipPath id="clip0-854264">
<rect width="32" height="32" fill="white" transform="translate(45 16)"/>
</clipPath>
</defs>
</svg>