<svg width="171" height="64" viewBox="0 0 171 64" fill="none" xmlns="http://www.w3.org/2000/svg">
<path d="M107.146 27.1148C107.03 27.1148 106.856 27.0566 106.391 27.0566C105.984 27.0566 105.635 27.1148 105.287 27.173C103.892 27.464 102.962 28.2204 102.206 29.0351L102.206 27.4058H97.7891L97.7891 41.7204H102.206L102.206 35.7851C102.206 35.0868 102.264 34.4467 102.322 33.8648C102.381 33.2829 102.555 32.7592 102.845 32.3519C103.136 31.9446 103.485 31.5954 103.95 31.3627C104.415 31.1299 105.112 31.0135 105.926 31.0135C106.275 31.0135 106.565 31.0135 106.856 31.0717C107.146 31.1299 107.495 31.1881 107.786 31.3045L107.786 27.2894C107.611 27.2312 107.379 27.173 107.146 27.1148Z" fill="#E6E6E6"/>
<path d="M118.943 27.1148C118.827 27.1148 118.653 27.0566 118.188 27.0566C117.781 27.0566 117.432 27.1148 117.083 27.173C115.689 27.464 114.759 28.2204 114.003 29.0351L114.003 27.4058H109.586L109.586 41.7204H114.003L114.003 35.7851C114.003 35.0868 114.061 34.4467 114.119 33.8648C114.177 33.2829 114.352 32.7592 114.642 32.3519C114.933 31.9446 115.282 31.5954 115.747 31.3627C116.212 31.1299 116.909 31.0135 117.723 31.0135C118.071 31.0135 118.362 31.0135 118.653 31.0717C118.943 31.1299 119.292 31.1881 119.583 31.3045L119.583 27.2894C119.408 27.2312 119.176 27.173 118.943 27.1148Z" fill="#E6E6E6"/>
<path d="M72.4477 26.8819H66.5195L66.5195 22.8086H82.9674L82.9674 26.8819H77.0392L77.0392 41.7784H72.4477L72.4477 26.8819Z" fill="#E6E6E6"/>
<path d="M95.3467 39.2769C94.6493 40.2079 93.7775 40.848 92.6732 41.3717C91.5689 41.8372 90.4646 42.1282 89.3022 42.1282C88.198 42.1282 87.1518 41.9536 86.2219 41.6045C85.2339 41.2553 84.4202 40.7316 83.6646 40.0915C82.9672 39.4515 82.386 38.6368 81.9792 37.7058C81.5723 36.7747 81.3398 35.7273 81.3398 34.6217C81.3398 33.4579 81.5723 32.4687 81.9792 31.5377C82.386 30.6066 82.9672 29.8502 83.6646 29.1519C84.3621 28.5118 85.2339 27.9881 86.2219 27.6389C87.2099 27.2898 88.198 27.1152 89.3022 27.1152C90.3484 27.1152 91.2202 27.2898 92.092 27.6389C92.9057 27.9881 93.6031 28.5118 94.1843 29.1519C94.7655 29.792 95.2305 30.6066 95.5211 31.5377C95.8116 32.4687 95.986 33.5161 95.986 34.6217L95.986 36.0183H85.7569C85.9313 36.8911 86.3381 37.5312 86.9193 38.0549C87.5005 38.5786 88.2561 38.8114 89.0698 38.8114C89.7672 38.8114 90.4065 38.6368 90.9296 38.3459C91.4527 37.9967 91.8595 37.5894 92.2664 37.0657L95.3467 39.2769ZM91.627 32.9924C91.627 32.2359 91.3946 31.5958 90.8715 31.0721C90.3484 30.5484 89.7091 30.2575 88.8954 30.2575C88.4304 30.2575 87.9655 30.3157 87.6168 30.4902C87.2681 30.6648 86.9193 30.8394 86.6869 31.0721C86.3963 31.3049 86.2219 31.5958 86.0475 31.945C85.8732 32.2941 85.8151 32.5851 85.8151 32.9342H91.627L91.627 32.9924Z" fill="#E6E6E6"/>
<path d="M120.102 37.6476C120.102 34.3889 122.601 32.9342 126.088 32.9342C127.599 32.9342 128.703 33.167 129.749 33.5161L129.749 33.2833C129.749 31.5958 128.645 30.6066 126.553 30.6066C124.926 30.6066 123.821 30.8976 122.426 31.4213L121.38 28.279C123.008 27.5808 124.635 27.1152 127.192 27.1152C129.517 27.1152 131.144 27.6971 132.249 28.7445C133.353 29.8502 133.876 31.4213 133.876 33.3997L133.876 41.8372H129.808L129.808 40.2661C128.761 41.3717 127.367 42.1282 125.274 42.1282C122.368 42.1282 120.102 40.5571 120.102 37.6476ZM129.808 36.7165L129.808 36.4838C129.808 36.1928 129.633 35.9019 129.284 35.7855C128.645 35.5527 127.89 35.4364 127.076 35.4364C125.274 35.4364 124.17 36.1346 124.17 37.473L124.17 37.5312C124.17 38.6368 125.1 39.2769 126.495 39.2769C128.471 39.2769 129.808 38.2295 129.808 36.7165Z" fill="#E6E6E6"/>
<path opacity="0.4" d="M48.6182 39.3335C49.3157 41.8938 51.7567 43.8141 53.0353 43.7559C53.0935 43.7559 57.743 42.883 60.3584 38.577C62.3345 35.2602 61.6952 32.0015 58.9635 31.9434C57.9755 32.0015 47.3396 34.4455 48.6182 39.3335Z" fill="#E6E6E6"/>
<path opacity="0.4" d="M58.6707 22.9255C56.6365 21.1216 53.9049 20.0742 50.9407 20.0742C49.1972 20.0742 47.5698 20.4234 46.1168 21.1216C45.8262 21.238 45.5937 21.3544 45.3613 21.4708C45.1869 21.5872 45.0125 21.6453 44.8382 21.7617H44.8963C44.4313 22.1109 43.9664 22.5182 43.6177 22.9837C40.1886 27.5225 51.6963 30.7811 57.7989 30.8393C60.6467 32.8178 61.4604 25.0785 58.6707 22.9255Z" fill="#E6E6E6"/>
<path d="M46.8163 23.0433C45.2471 25.4291 40.0163 27.0584 39.1445 26.8256C39.2027 26.7674 39.2027 26.7093 39.2608 26.5929C39.5514 26.011 39.9001 25.4873 40.3069 24.9636C40.7138 24.4399 41.1206 23.9743 41.5856 23.5088C42.0505 23.0433 42.5155 22.636 43.0386 22.2286C43.3873 21.9959 43.6779 21.7631 44.0266 21.5886C44.7821 21.1812 45.5377 21.123 45.7702 21.123C48.0368 21.123 46.8163 22.9851 46.8163 23.0433Z" fill="#E6E6E6"/>
<path d="M45.538 39.802C45.6543 40.5585 45.538 43.468 45.3637 43.7589C45.2474 43.7589 44.9568 43.7589 44.1432 43.3516C43.7363 43.1188 43.3295 42.8279 42.9227 42.5951C42.3996 42.1878 41.9346 41.7805 41.4697 41.3149C41.0047 40.8494 40.5979 40.3839 40.191 39.8602C39.7842 39.3365 39.4936 38.8128 39.1449 38.2309C38.8543 37.649 38.5637 37.0671 38.3893 36.427C38.215 35.7869 38.0406 35.1468 37.9244 34.5067C37.8081 33.8667 37.75 33.1684 37.75 32.4701C37.75 31.7718 37.8081 31.0735 37.9244 30.4335C38.0406 29.7934 38.215 29.0951 38.3893 28.5132C38.4474 28.3968 38.4474 28.2804 38.5056 28.1641C39.4355 29.386 40.4816 30.4917 41.3534 31.6554C42.2252 32.8192 43.3876 34.6813 43.6201 35.0886C45.1893 37.4744 45.4218 39.0455 45.538 39.802Z" fill="#E6E6E6"/>
<path d="M62.9758 32.3531C62.9758 33.9824 62.6852 35.5536 62.104 36.9501C60.651 38.5212 50.6545 34.6225 50.5382 34.5643C49.1433 33.9824 45.0168 32.1204 44.6681 29.2691C44.145 25.1376 52.4562 22.2863 56.1177 22.1699C56.5827 22.1699 57.9194 22.1699 58.675 22.81C61.2904 25.1958 62.9758 28.5708 62.9758 32.3531Z" fill="#E6E6E6"/>
<path d="M56.2322 43.5246C55.128 44.0483 53.9656 43.641 54.2562 42.5935C54.8374 40.5569 60.0681 38.4621 61.2305 38.3457C61.3468 38.3457 61.4049 38.4039 61.3468 38.5203C60.1263 40.6733 58.3827 42.419 56.2322 43.5246Z" fill="#E6E6E6"/>
</svg>