<svg width="172" height="64" viewBox="0 0 172 64" fill="none" xmlns="http://www.w3.org/2000/svg">
<g clip-path="url(#clip0-900102)">
<path d="M21.8437 46.4473L40.9772 38.3732L34.9243 32.22L21.8437 46.4473ZM28.8714 26.0746L34.9243 32.22L45.7361 18.9844L28.8714 26.0746Z" fill="#E6E6E6"/>
<path d="M55.3057 29.0639H52.3281L52.3281 27.4957H60.0184L60.0184 29.0665H57.0506L57.0506 37.9316H55.3064L55.3057 29.0639ZM63.5882 27.4957H65.3435L65.3435 32.0076H69.7825L69.7825 27.4957H71.5521L71.5521 37.9316H69.7825L69.7825 33.5759H65.3435L65.3435 37.9316H63.5889L63.5882 27.4957ZM77.4891 37.525C76.8883 37.252 76.4349 36.7353 76.1299 35.9743C75.8244 35.2146 75.6719 34.0952 75.6719 32.6168C75.6719 31.1437 75.827 30.0172 76.1365 29.2373C76.4459 28.458 76.902 27.9257 77.5034 27.6423C78.1041 27.3621 78.9108 27.2214 79.9213 27.2207C80.9325 27.2207 81.7457 27.3608 82.3607 27.6423C82.9667 27.9224 83.4214 28.4502 83.7277 29.2249C84.0339 29.9996 84.1864 31.1287 84.1857 32.6123C84.1857 34.0861 84.0306 35.2055 83.7199 35.9704C83.4097 36.7353 82.9569 37.2533 82.3607 37.5243C81.7645 37.7954 80.9521 37.9309 79.9213 37.9316C78.8919 37.9316 78.0807 37.7967 77.4891 37.5243L77.4891 37.525ZM81.431 36.0623C81.7789 35.872 82.0297 35.5136 82.1822 34.9859C82.3347 34.4588 82.4115 33.6665 82.4115 32.6097C82.4115 31.5164 82.3327 30.6987 82.1744 30.1566C82.0167 29.6145 81.7665 29.2529 81.4238 29.0718C81.0804 28.8926 80.58 28.8027 79.9213 28.802C79.2828 28.802 78.7915 28.8945 78.4475 29.0796C78.1041 29.2646 77.8513 29.6256 77.6898 30.1631C77.5269 30.7 77.4461 31.5157 77.4461 32.6097C77.4461 33.6743 77.5197 34.4666 77.6676 34.9859C77.8148 35.5058 78.0624 35.8648 78.4097 36.0623C78.7531 36.2525 79.2587 36.3476 79.9265 36.3476C80.5813 36.3476 81.083 36.2525 81.431 36.0623ZM88.5798 27.4957H92.8494C93.7414 27.4957 94.4483 27.7289 94.9702 28.1961C95.4914 28.6632 95.7527 29.5089 95.7527 30.7326C95.7527 31.6571 95.5892 32.3308 95.2614 32.7543C94.9337 33.1796 94.4848 33.4956 93.974 33.6606L95.9944 37.9316H94.2157L92.394 33.9154C91.8154 33.9154 91.1273 33.9056 90.3305 33.8861L90.3305 37.9316H88.5798L88.5798 27.4957ZM92.5503 32.5172C93.0064 32.5172 93.3589 32.3869 93.6104 32.1282C93.8613 31.8695 93.9883 31.405 93.9896 30.7358C93.9896 30.094 93.8632 29.6542 93.6104 29.4151C93.3576 29.1767 93.0045 29.0587 92.5503 29.062H90.3305L90.3305 32.5119L92.5503 32.5172ZM101.169 37.5113C100.648 37.2305 100.25 36.7001 99.9761 35.9209C99.7011 35.141 99.5643 34.0144 99.5649 32.5413C99.5649 31.1424 99.7044 30.0563 99.9832 29.2822C100.263 28.5082 100.672 27.9713 101.211 27.6703C101.75 27.3706 102.447 27.2207 103.304 27.2207C103.866 27.2214 104.429 27.2663 104.985 27.3569C105.473 27.4305 105.955 27.5374 106.429 27.6774L106.429 29.0346C106.15 28.9786 105.752 28.9265 105.235 28.8789C104.71 28.8308 104.182 28.8069 103.655 28.8072C103.041 28.8072 102.569 28.905 102.238 29.0998C101.907 29.2939 101.668 29.6582 101.52 30.1911C101.371 30.7234 101.297 31.5157 101.297 32.568C101.297 33.6202 101.366 34.4145 101.506 34.9501C101.645 35.4837 101.878 35.8492 102.203 36.0479C102.529 36.2466 103.008 36.3463 103.64 36.3476C104.573 36.3555 105.505 36.3031 106.431 36.1906L106.431 37.5458C105.584 37.7993 104.528 37.9276 103.264 37.9316C102.388 37.9316 101.69 37.7921 101.169 37.5113ZM110.55 27.4957H112.306L112.306 32.0076H116.745L116.745 27.4957H118.515L118.515 37.9316H116.745L116.745 33.5759H112.306L112.306 37.9316H110.55L110.55 27.4957ZM125.773 27.4957H127.999L131.423 37.9316H129.582L128.769 35.4537H124.965L124.166 37.9289H122.359L125.774 27.4957H125.773ZM128.341 33.8874L126.858 28.9955L125.374 33.8874H128.341ZM135.267 27.4957H136.915L136.915 37.9316H135.267L135.267 27.4957ZM141.583 27.4957H142.994L147.781 34.9474L147.781 27.4957H149.548L149.548 37.9316H148.137L143.35 30.4843L143.35 37.9316H141.583L141.583 27.4957Z" fill="#E6E6E6"/>
</g>
<defs>
<clipPath id="clip0-900102">
<rect width="128.356" height="29.9713" fill="white" transform="translate(21.8398 17.0293)"/>
</clipPath>
</defs>
</svg>