<svg width="614" height="609" viewBox="0 0 614 609" fill="none" xmlns="http://www.w3.org/2000/svg">
<path d="M7 154L307 4L607 154L307 304L7 154Z" fill="white"/>
<path d="M7 454L307 304L607 454L307 604L7 454Z" fill="white"/>
<path d="M307 304L607 154V454L307 604V304Z" fill="white"/>
<path d="M7 154L307 304V604L7 454V154Z" fill="white"/>
<path d="M7 454L307 304L607 454L307 604L7 454Z" fill="black" fill-opacity="0.1"/>
<mask id="mask0" mask-type="alpha" maskUnits="userSpaceOnUse" x="0" y="0" width="614" height="609">
<path d="M607 154H610V149.146L605.658 151.317L607 154ZM307 304L305.658 301.317L304 302.146V304H307ZM607 454L608.342 456.683L610 455.854V454H607ZM307 604H304V608.854L308.342 606.683L307 604ZM605.658 151.317L305.658 301.317L308.342 306.683L608.342 156.683L605.658 151.317ZM605.658 451.317L305.658 601.317L308.342 606.683L608.342 456.683L605.658 451.317ZM304 304V604H310V304H304ZM604 154V454H610V154H604Z" fill="black"/>
<path d="M7 154L8.34164 151.317L4 149.146V154H7ZM307 304H310V302.146L308.342 301.317L307 304ZM7 454H4V455.854L5.65836 456.683L7 454ZM307 604L305.658 606.683L310 608.854V604H307ZM308.342 301.317L8.34164 151.317L5.65836 156.683L305.658 306.683L308.342 301.317ZM308.342 601.317L8.34164 451.317L5.65836 456.683L305.658 606.683L308.342 601.317ZM4 154V454H10V154H4ZM304 304V604H310V304H304Z" fill="black"/>
<path d="M7 154L307 4L607 154L307 304L7 154Z" stroke="black" stroke-width="6"/>
</mask>
<g mask="url(#mask0)">
<path fill-rule="evenodd" clip-rule="evenodd" d="M657 -46H-43V654H657V-46ZM307 529C431.264 529 532 428.264 532 304C532 179.736 431.264 79 307 79C182.736 79 82 179.736 82 304C82 428.264 182.736 529 307 529Z" fill="black"/>
</g>
<path fill-rule="evenodd" clip-rule="evenodd" d="M298 154H316L316 304H298L298 154Z" fill="black"/>
<path fill-rule="evenodd" clip-rule="evenodd" d="M306.699 202.406C284.808 202.406 267 184.596 267 162.703C267 140.811 284.808 123 306.699 123C328.59 123 346.4 140.811 346.4 162.703C346.4 184.596 328.59 202.406 306.699 202.406Z" fill="white"/>
<path fill-rule="evenodd" clip-rule="evenodd" d="M306.678 147.363C298.225 147.363 291.35 154.244 291.35 162.702C291.35 171.16 298.225 178.041 306.678 178.041C315.13 178.041 322.007 171.16 322.007 162.702C322.007 154.244 315.13 147.363 306.678 147.363ZM306.678 196.405C288.107 196.405 273 181.287 273 162.702C273 144.119 288.107 129 306.678 129C325.248 129 340.357 144.119 340.357 162.702C340.357 181.287 325.248 196.405 306.678 196.405Z" fill="black"/>
<path fill-rule="evenodd" clip-rule="evenodd" d="M172.596 236.794L181.596 221.206L311.5 296.206L302.5 311.794L172.596 236.794Z" fill="black"/>
<path fill-rule="evenodd" clip-rule="evenodd" d="M218.866 253.463C207.921 272.422 183.593 278.939 164.633 267.992C145.674 257.046 139.153 232.719 150.099 213.761C161.044 194.802 185.374 188.284 204.333 199.23C223.293 210.177 229.812 234.505 218.866 253.463Z" fill="white"/>
<path fill-rule="evenodd" clip-rule="evenodd" d="M171.187 225.961C166.961 233.281 169.483 242.676 176.808 246.905C184.132 251.134 193.529 248.62 197.756 241.3C201.982 233.98 199.461 224.583 192.136 220.354C184.811 216.126 175.414 218.641 171.187 225.961ZM213.659 250.481C204.373 266.564 183.727 272.088 167.633 262.796C151.539 253.504 145.999 232.862 155.284 216.779C164.57 200.696 185.217 195.171 201.311 204.463C217.406 213.755 222.944 234.399 213.659 250.481Z" fill="black"/>
<path fill-rule="evenodd" clip-rule="evenodd" d="M181.596 386.794L172.596 371.206L302.5 296.206L311.5 311.794L181.596 386.794Z" fill="black"/>
<path fill-rule="evenodd" clip-rule="evenodd" d="M219.167 355.058C230.113 374.016 223.593 398.343 204.633 409.29C185.674 420.236 161.345 413.719 150.4 394.761C139.454 375.802 145.974 351.473 164.933 340.527C183.893 329.581 208.222 336.1 219.167 355.058Z" fill="white"/>
<path fill-rule="evenodd" clip-rule="evenodd" d="M171.51 382.597C175.736 389.918 185.133 392.431 192.458 388.202C199.783 383.973 202.304 374.578 198.078 367.258C193.852 359.938 184.454 357.423 177.129 361.652C169.804 365.881 167.283 375.277 171.51 382.597ZM213.981 358.077C223.266 374.16 217.727 394.801 201.633 404.094C185.539 413.385 164.892 407.862 155.607 391.779C146.321 375.696 151.86 355.053 167.954 345.761C184.049 336.469 204.695 341.994 213.981 358.077Z" fill="black"/>
<path fill-rule="evenodd" clip-rule="evenodd" d="M316 454H298L298 304H316L316 454Z" fill="black"/>
<path fill-rule="evenodd" clip-rule="evenodd" d="M307.301 405.594C329.192 405.594 347 423.404 347 445.297C347 467.189 329.192 485 307.301 485C285.41 485 267.6 467.189 267.6 445.297C267.6 423.404 285.41 405.594 307.301 405.594Z" fill="white"/>
<path fill-rule="evenodd" clip-rule="evenodd" d="M307.322 460.637C315.775 460.637 322.65 453.756 322.65 445.298C322.65 436.84 315.775 429.959 307.322 429.959C298.87 429.959 291.993 436.84 291.993 445.298C291.993 453.756 298.87 460.637 307.322 460.637ZM307.322 411.595C325.893 411.595 341 426.713 341 445.298C341 463.881 325.893 479 307.322 479C288.752 479 273.643 463.881 273.643 445.298C273.643 426.713 288.752 411.595 307.322 411.595Z" fill="black"/>
<path fill-rule="evenodd" clip-rule="evenodd" d="M441.404 371.206L432.404 386.794L302.5 311.794L311.5 296.206L441.404 371.206Z" fill="black"/>
<path fill-rule="evenodd" clip-rule="evenodd" d="M395.134 354.537C406.079 335.578 430.407 329.061 449.367 340.008C468.326 350.954 474.847 375.281 463.901 394.239C452.956 413.198 428.626 419.716 409.667 408.77C390.707 397.823 384.188 373.495 395.134 354.537Z" fill="white"/>
<path fill-rule="evenodd" clip-rule="evenodd" d="M442.813 382.039C447.039 374.719 444.517 365.324 437.192 361.095C429.868 356.866 420.471 359.38 416.244 366.7C412.018 374.02 414.539 383.417 421.864 387.646C429.189 391.874 438.586 389.359 442.813 382.039ZM400.341 357.519C409.627 341.436 430.273 335.912 446.367 345.204C462.461 354.496 468.001 375.138 458.716 391.221C449.43 407.304 428.783 412.829 412.689 403.537C396.594 394.245 391.056 373.601 400.341 357.519Z" fill="black"/>
<path fill-rule="evenodd" clip-rule="evenodd" d="M432.404 221.206L441.404 236.794L311.5 311.794L302.5 296.206L432.404 221.206Z" fill="black"/>
<path fill-rule="evenodd" clip-rule="evenodd" d="M394.833 252.942C383.887 233.984 390.407 209.657 409.367 198.71C428.326 187.764 452.655 194.281 463.6 213.239C474.546 232.198 468.026 256.527 449.067 267.473C430.107 278.419 405.778 271.9 394.833 252.942Z" fill="white"/>
<path fill-rule="evenodd" clip-rule="evenodd" d="M442.49 225.403C438.264 218.082 428.867 215.569 421.542 219.798C414.217 224.027 411.696 233.422 415.922 240.742C420.148 248.062 429.546 250.577 436.871 246.348C444.196 242.119 446.717 232.723 442.49 225.403ZM400.019 249.923C390.734 233.84 396.273 213.199 412.367 203.906C428.461 194.615 449.108 200.138 458.393 216.221C467.679 232.304 462.14 252.947 446.046 262.239C429.951 271.531 409.305 266.006 400.019 249.923Z" fill="black"/>
<path fill-rule="evenodd" clip-rule="evenodd" d="M306.699 343.406C284.808 343.406 267 325.596 267 303.703C267 281.811 284.808 264 306.699 264C328.59 264 346.4 281.811 346.4 303.703C346.4 325.596 328.59 343.406 306.699 343.406Z" fill="white"/>
<path fill-rule="evenodd" clip-rule="evenodd" d="M306.678 288.363C298.225 288.363 291.35 295.244 291.35 303.702C291.35 312.16 298.225 319.041 306.678 319.041C315.13 319.041 322.007 312.16 322.007 303.702C322.007 295.244 315.13 288.363 306.678 288.363ZM306.678 337.405C288.107 337.405 273 322.287 273 303.702C273 285.119 288.107 270 306.678 270C325.248 270 340.357 285.119 340.357 303.702C340.357 322.287 325.248 337.405 306.678 337.405Z" fill="black"/>
</svg>
