<svg width="146" height="75" viewBox="0 0 146 75" fill="none" xmlns="http://www.w3.org/2000/svg">
<rect x="57" width="68" height="68" rx="20" fill="white" fill-opacity="0.1"/>
<path d="M91.8241 63.8241C82.2563 73.392 66.7437 73.392 57.1759 63.8241C47.608 54.2563 47.608 38.7437 57.1759 29.1759C66.7437 19.608 82.2563 19.608 91.8241 29.1759C101.392 38.7437 101.392 54.2563 91.8241 63.8241Z" fill="url(#paint0_radial-119131)"/>
<path d="M51.7805 5.12436L134.222 30.882" stroke="url(#paint1_linear-094910)" stroke-width="2.5" stroke-linecap="round"/>
<path d="M98.6496 45.8632C100.3 46.8825 101.558 47.905 102.415 48.8936C103.274 49.8845 103.705 50.8103 103.764 51.6437C103.879 53.2465 102.597 54.8043 99.5188 56.0103C96.4791 57.201 92.0243 57.8998 86.6643 57.9981C81.3126 58.0963 75.3184 57.5913 69.3974 56.5412C63.4759 55.491 57.8897 53.9421 53.3037 52.0831C48.7032 50.2182 45.3576 48.1415 43.6016 46.1307C42.7273 45.1295 42.2979 44.2029 42.233 43.3768C42.1695 42.5675 42.4503 41.7862 43.1398 41.0426C44.5566 39.5148 47.5774 38.2843 51.9811 37.5947" stroke="#191919"/>
<path d="M98.6496 45.8632C100.3 46.8825 101.558 47.905 102.415 48.8936C103.274 49.8845 103.705 50.8103 103.764 51.6437C103.879 53.2465 102.597 54.8043 99.5188 56.0103C96.4791 57.201 92.0243 57.8998 86.6643 57.9981C81.3126 58.0963 75.3184 57.5913 69.3974 56.5412C63.4759 55.491 57.8897 53.9421 53.3037 52.0831C48.7032 50.2182 45.3576 48.1415 43.6016 46.1307C42.7273 45.1295 42.2979 44.2029 42.233 43.3768C42.1695 42.5675 42.4503 41.7862 43.1398 41.0426C44.5566 39.5148 47.5774 38.2843 51.9811 37.5947" stroke="white" stroke-opacity="0.1"/>
<path d="M96.0263 35.1235C107.65 38.4911 116.944 42.7939 122.324 47.2518C125.016 49.4823 126.592 51.639 127.126 53.6153C127.649 55.5537 127.189 57.3791 125.657 59.0475C124.104 60.7401 121.495 62.2155 117.929 63.3863C114.373 64.5542 109.909 65.4048 104.694 65.8776C94.2641 66.8234 81.547 66.1935 68.767 64.0917C55.9864 61.9898 43.9807 58.5536 34.8463 54.3919C30.2789 52.311 26.5895 50.1215 23.8906 47.93C21.1835 45.7319 19.5171 43.5676 18.9168 41.549C18.3282 39.5698 18.7671 37.7421 20.217 36.0914C21.6884 34.4162 24.2106 32.9184 27.7786 31.7126C34.909 29.303 45.5598 28.2798 57.8877 28.8514" stroke="#191919"/>
<path d="M96.0263 35.1235C107.65 38.4911 116.944 42.7939 122.324 47.2518C125.016 49.4823 126.592 51.639 127.126 53.6153C127.649 55.5537 127.189 57.3791 125.657 59.0475C124.104 60.7401 121.495 62.2155 117.929 63.3863C114.373 64.5542 109.909 65.4048 104.694 65.8776C94.2641 66.8234 81.547 66.1935 68.767 64.0917C55.9864 61.9898 43.9807 58.5536 34.8463 54.3919C30.2789 52.311 26.5895 50.1215 23.8906 47.93C21.1835 45.7319 19.5171 43.5676 18.9168 41.549C18.3282 39.5698 18.7671 37.7421 20.217 36.0914C21.6884 34.4162 24.2106 32.9184 27.7786 31.7126C34.909 29.303 45.5598 28.2798 57.8877 28.8514" stroke="white" stroke-opacity="0.1"/>
<path d="M92.0708 30.1652C109.241 34.0836 124.009 39.6706 133.534 45.8259C138.3 48.9055 141.544 51.992 143.237 54.9185C144.918 57.823 145.062 60.5421 143.689 62.9986C142.294 65.4955 139.337 67.7179 134.923 69.5248C130.52 71.3267 124.732 72.689 117.771 73.5087C103.851 75.1479 86.3063 74.4924 68.5323 71.6599C50.7579 68.8274 34.0471 64.024 21.6293 58.1885C15.4196 55.2704 10.5231 52.2067 7.09824 49.1608C3.66391 46.1065 1.76477 43.1201 1.42877 40.3629C1.09761 37.6453 2.28541 35.1285 5.00863 32.9084C7.74481 30.6777 11.9971 28.7816 17.6674 27.364C29.0018 24.5304 45.0295 23.8509 62.6591 25.4782" stroke="#191919"/>
<path d="M92.0708 30.1652C109.241 34.0836 124.009 39.6706 133.534 45.8259C138.3 48.9055 141.544 51.992 143.237 54.9185C144.918 57.823 145.062 60.5421 143.689 62.9986C142.294 65.4955 139.337 67.7179 134.923 69.5248C130.52 71.3267 124.732 72.689 117.771 73.5087C103.851 75.1479 86.3063 74.4924 68.5323 71.6599C50.7579 68.8274 34.0471 64.024 21.6293 58.1885C15.4196 55.2704 10.5231 52.2067 7.09824 49.1608C3.66391 46.1065 1.76477 43.1201 1.42877 40.3629C1.09761 37.6453 2.28541 35.1285 5.00863 32.9084C7.74481 30.6777 11.9971 28.7816 17.6674 27.364C29.0018 24.5304 45.0295 23.8509 62.6591 25.4782" stroke="white" stroke-opacity="0.1"/>
<path d="M119.364 30.364C115.849 33.8787 110.151 33.8787 106.636 30.364C103.121 26.8492 103.121 21.1508 106.636 17.636C110.151 14.1213 115.849 14.1213 119.364 17.636C122.879 21.1508 122.879 26.8492 119.364 30.364Z" fill="url(#paint2_radial-961152)"/>
<path d="M23.8284 37.8284C22.2663 39.3905 19.7337 39.3905 18.1716 37.8284C16.6095 36.2663 16.6095 33.7337 18.1716 32.1716C19.7337 30.6095 22.2663 30.6095 23.8284 32.1716C25.3905 33.7337 25.3905 36.2663 23.8284 37.8284Z" fill="url(#paint3_radial-194831)"/>
<defs>
<radialGradient id="paint0_radial-119131" cx="0" cy="0" r="1" gradientUnits="userSpaceOnUse" gradientTransform="translate(56.4515 42.147) rotate(13.2846) scale(44.3533 47.9138)">
<stop offset="0.421875" stop-color="#100A13"/>
<stop offset="0.625" stop-color="#290423"/>
<stop offset="0.814509" stop-color="#6C1974"/>
<stop offset="1" stop-color="#AD62E6"/>
</radialGradient>
<linearGradient id="paint1_linear-094910" x1="51.8154" y1="5.14075" x2="59.1407" y2="-8.74353" gradientUnits="userSpaceOnUse">
<stop offset="0.190577" stop-color="#BAFBFF"/>
<stop offset="0.427388" stop-color="#AFD4F9" stop-opacity="0"/>
</linearGradient>
<radialGradient id="paint2_radial-961152" cx="0" cy="0" r="1" gradientUnits="userSpaceOnUse" gradientTransform="translate(106.37 22.4009) rotate(13.2846) scale(16.293 17.601)">
<stop offset="0.421875" stop-color="#100A13"/>
<stop offset="0.625" stop-color="#290423"/>
<stop offset="0.814509" stop-color="#6C1974"/>
<stop offset="1" stop-color="#AD62E6"/>
</radialGradient>
<radialGradient id="paint3_radial-194831" cx="0" cy="0" r="1" gradientUnits="userSpaceOnUse" gradientTransform="translate(22.4294 37.9103) rotate(-122.276) scale(8.16265)">
<stop offset="0.473925" stop-color="#010203"/>
<stop offset="0.866261" stop-color="#1B2733"/>
</radialGradient>
</defs>
</svg>