<svg width="80" height="68" viewBox="0 0 80 68" fill="none" xmlns="http://www.w3.org/2000/svg">
<rect width="68" height="68" rx="20" fill="white" fill-opacity="0.1"/>
<g clip-path="url(#clip0-873993)">
<path d="M55 28.1328L72.5532 28.1328L80 33.9995L55 58.0007L30 33.9995L45.6918 28.6661L55 28.1328Z" fill="url(#paint0_linear-439406)"/>
<path d="M55.0009 58L40.1073 39.8667L69.8945 39.8667L55.0009 58Z" fill="url(#paint1_linear-288585)"/>
<path d="M69.8936 39.864L80 33.9974L55 9.99609L30 33.9974L40.1064 39.864L69.8936 39.864Z" fill="url(#paint2_linear-812615)"/>
<path d="M54.9991 10L69.8927 39.8667L40.1055 39.8667L54.9991 10Z" fill="url(#paint3_linear-251402)"/>
<g opacity="0.15" filter="url(#filter0_f-634557)">
<path d="M21.903 23.5653C21.903 23.5653 15.356 47.1456 37.5195 60.8935C56.2623 72.5201 75.1916 48.6415 61.1007 36.4635C51.446 28.1199 51.1944 21.8767 50.5813 13.7361C49.6086 0.822959 29.5686 -5.16737 21.903 23.5653Z" fill="url(#paint4_radial-211915)"/>
</g>
</g>
<defs>
<filter id="filter0_f-634557" x="-19" y="-37" width="125" height="141" filterUnits="userSpaceOnUse" color-interpolation-filters="sRGB">
<feFlood flood-opacity="0" result="BackgroundImageFix"/>
<feBlend mode="normal" in="SourceGraphic" in2="BackgroundImageFix" result="shape"/>
<feGaussianBlur stdDeviation="20" result="effect1_foregroundBlur"/>
</filter>
<linearGradient id="paint0_linear-439406" x1="68.8301" y1="28.1328" x2="68.8301" y2="66.0008" gradientUnits="userSpaceOnUse">
<stop stop-color="#78CCFB"/>
<stop offset="1" stop-color="#00BD90"/>
</linearGradient>
<linearGradient id="paint1_linear-288585" x1="55.0009" y1="66" x2="55.0009" y2="39.8667" gradientUnits="userSpaceOnUse">
<stop stop-color="#17DAB0"/>
<stop offset="1" stop-color="#58E1FF"/>
</linearGradient>
<linearGradient id="paint2_linear-812615" x1="40.9706" y1="49.9974" x2="40.9706" y2="1.99605" gradientUnits="userSpaceOnUse">
<stop stop-color="#86F8FF"/>
<stop offset="1" stop-color="#ECA2FF"/>
</linearGradient>
<linearGradient id="paint3_linear-251402" x1="54.7717" y1="1.99998" x2="54.7717" y2="39.8667" gradientUnits="userSpaceOnUse">
<stop stop-color="#DEB5FF"/>
<stop offset="1" stop-color="#A7FAFF"/>
</linearGradient>
<radialGradient id="paint4_radial-211915" cx="0" cy="0" r="1" gradientUnits="userSpaceOnUse" gradientTransform="translate(51.1749 16.5434) rotate(92.6937) scale(42.1131 38.0889)">
<stop stop-color="#DBBBFF"/>
<stop offset="1" stop-color="#0FF7EC"/>
</radialGradient>
<clipPath id="clip0-873993">
<rect width="80" height="68" fill="white"/>
</clipPath>
</defs>
</svg>