<svg width="105" height="70" viewBox="0 0 105 70" fill="none" xmlns="http://www.w3.org/2000/svg">
<rect x="17" y="2" width="68" height="68" rx="20" fill="white" fill-opacity="0.1"/>
<path d="M4 64C8.8826 55.8721 15.3164 48.7867 22.9341 43.1482C30.5517 37.5098 39.204 33.4287 48.397 31.138C57.59 28.8474 67.1437 28.392 76.5125 29.7978C85.8813 31.2037 94.8817 34.4433 103 39.3316" stroke="url(#paint0_linear-655431)" stroke-width="3" stroke-linecap="round" stroke-linejoin="round"/>
<path d="M4 2C8.8826 10.1279 15.3164 17.2133 22.9341 22.8518C30.5517 28.4902 39.204 32.5713 48.397 34.862C57.59 37.1526 67.1437 37.608 76.5125 36.2022C85.8813 34.7963 94.8817 31.5567 103 26.6684" stroke="url(#paint1_linear-198781)" stroke-width="3" stroke-linecap="round" stroke-linejoin="round"/>
<path d="M24.5 59C10.969 59 1.46386e-06 48.031 0 34.5C4.06995e-08 20.969 10.969 10 24.5 10C38.031 10 49 20.969 49 34.5C49 48.031 38.031 59 24.5 59Z" fill="url(#paint2_radial-002333)"/>
<defs>
<linearGradient id="paint0_linear-655431" x1="0.708679" y1="25.2095" x2="82.8934" y2="122.689" gradientUnits="userSpaceOnUse">
<stop offset="0.254598" stop-color="white" stop-opacity="0"/>
<stop offset="0.901042" stop-color="white"/>
</linearGradient>
<linearGradient id="paint1_linear-198781" x1="0.708676" y1="40.787" x2="82.8934" y2="-56.6925" gradientUnits="userSpaceOnUse">
<stop offset="0.254598" stop-color="white" stop-opacity="0"/>
<stop offset="0.901042" stop-color="white"/>
</linearGradient>
<radialGradient id="paint2_radial-002333" cx="0" cy="0" r="1" gradientUnits="userSpaceOnUse" gradientTransform="translate(6.45154 30.147) rotate(13.2846) scale(44.3533 47.9138)">
<stop offset="0.421875" stop-color="#100A13"/>
<stop offset="0.625" stop-color="#290423"/>
<stop offset="0.814509" stop-color="#6C1974"/>
<stop offset="1" stop-color="#AD62E6"/>
</radialGradient>
</defs>
</svg>