<svg width="84" height="68" viewBox="0 0 84 68" fill="none" xmlns="http://www.w3.org/2000/svg">
<rect x="5" width="68" height="68" rx="20" fill="white" fill-opacity="0.1"/>
<path fill-rule="evenodd" clip-rule="evenodd" d="M54.3834 29.9818C54.3834 29.9812 54.3834 29.9806 54.3834 29.98V24.3672H48.9565C44.7338 22.4775 38.4194 21.2773 31.3636 21.2773C24.3077 21.2773 17.9933 22.4775 13.7706 24.3672H8.34375V29.98C8.34375 29.9806 8.34375 29.9812 8.34375 29.9818C8.34635 34.7873 18.6517 38.6826 31.3636 38.6826C44.0754 38.6826 54.3808 34.7873 54.3834 29.9818Z" fill="url(#paint0_radial-288943)"/>
<ellipse cx="31.3636" cy="24.3862" rx="23.0198" ry="8.70261" fill="url(#paint1_radial-460116)"/>
<path d="M23 45C18.4323 44.4747 14.2845 43.6459 10.8431 42.5711C7.40171 41.4962 4.74892 40.2008 3.06806 38.7745C1.3872 37.3481 0.718353 35.8248 1.10776 34.3099C1.49716 32.7949 2.93552 31.3244 5.32343 30" stroke="url(#paint2_linear-671322)" stroke-width="1.42771" stroke-linecap="round" stroke-linejoin="round"/>
<g filter="url(#filter0_d-057216)">
<path fill-rule="evenodd" clip-rule="evenodd" d="M52.0459 57.4734C65.2742 57.4734 75.998 53.4193 75.998 48.4183C75.998 48.4182 75.998 48.4181 75.998 48.418V42.4467H70.0515C65.6617 40.5565 59.2223 39.3633 52.0459 39.3633C44.8694 39.3633 38.43 40.5565 34.0402 42.4467H28.0938V48.418C28.0938 48.4181 28.0938 48.4182 28.0938 48.4183C28.0938 53.4193 38.8175 57.4734 52.0459 57.4734Z" fill="url(#paint3_radial-602150)"/>
<g filter="url(#filter1_di-060219)">
<ellipse cx="52.0459" cy="42.4496" rx="23.9521" ry="9.05507" fill="white"/>
<ellipse cx="52.0459" cy="42.4496" rx="23.9521" ry="9.05507" fill="url(#paint4_linear-280000)"/>
</g>
</g>
<defs>
<filter id="filter0_d-057216" x="21.0542" y="23.6872" width="61.9832" height="38.1579" filterUnits="userSpaceOnUse" color-interpolation-filters="sRGB">
<feFlood flood-opacity="0" result="BackgroundImageFix"/>
<feColorMatrix in="SourceAlpha" type="matrix" values="0 0 0 0 0 0 0 0 0 0 0 0 0 0 0 0 0 0 127 0"/>
<feOffset dy="-2.66785"/>
<feGaussianBlur stdDeviation="3.51975"/>
<feColorMatrix type="matrix" values="0 0 0 0 0.521569 0 0 0 0 0.792157 0 0 0 0 1 0 0 0 0.4 0"/>
<feBlend mode="normal" in2="BackgroundImageFix" result="effect1_dropShadow"/>
<feBlend mode="normal" in="SourceGraphic" in2="effect1_dropShadow" result="shape"/>
</filter>
<filter id="filter1_di-060219" x="27.299" y="32.9972" width="49.4937" height="19.6996" filterUnits="userSpaceOnUse" color-interpolation-filters="sRGB">
<feFlood flood-opacity="0" result="BackgroundImageFix"/>
<feColorMatrix in="SourceAlpha" type="matrix" values="0 0 0 0 0 0 0 0 0 0 0 0 0 0 0 0 0 0 127 0"/>
<feOffset dy="0.397366"/>
<feGaussianBlur stdDeviation="0.397366"/>
<feColorMatrix type="matrix" values="0 0 0 0 0.556863 0 0 0 0 0.627451 0 0 0 0 1 0 0 0 0.3 0"/>
<feBlend mode="normal" in2="BackgroundImageFix" result="effect1_dropShadow"/>
<feBlend mode="normal" in="SourceGraphic" in2="effect1_dropShadow" result="shape"/>
<feColorMatrix in="SourceAlpha" type="matrix" values="0 0 0 0 0 0 0 0 0 0 0 0 0 0 0 0 0 0 127 0" result="hardAlpha"/>
<feOffset dy="-0.397366"/>
<feGaussianBlur stdDeviation="0.144045"/>
<feComposite in2="hardAlpha" operator="arithmetic" k2="-1" k3="1"/>
<feColorMatrix type="matrix" values="0 0 0 0 0.556863 0 0 0 0 0.627451 0 0 0 0 1 0 0 0 0.16 0"/>
<feBlend mode="normal" in2="shape" result="effect2_innerShadow"/>
</filter>
<radialGradient id="paint0_radial-288943" cx="0" cy="0" r="1" gradientUnits="userSpaceOnUse" gradientTransform="translate(20.9412 29.8928) rotate(-6.822) scale(41.2222 19.5631)">
<stop/>
<stop offset="0.473925"/>
<stop offset="0.866261" stop-color="#1F1F1F"/>
</radialGradient>
<radialGradient id="paint1_radial-460116" cx="0" cy="0" r="1" gradientUnits="userSpaceOnUse" gradientTransform="translate(11.9654 24.2991) rotate(-3.38173) scale(52.7501 25.0339)">
<stop stop-color="#0D0D0D"/>
<stop offset="0.866261" stop-color="#232323"/>
</radialGradient>
<linearGradient id="paint2_linear-671322" x1="10.8587" y1="27.3496" x2="11.6168" y2="40.3213" gradientUnits="userSpaceOnUse">
<stop offset="0.254598" stop-color="white" stop-opacity="0"/>
<stop offset="0.901042" stop-color="white"/>
</linearGradient>
<radialGradient id="paint3_radial-602150" cx="0" cy="0" r="1" gradientUnits="userSpaceOnUse" gradientTransform="translate(53.0837 49.5309) rotate(70.2405) scale(16.4012 27.3883)">
<stop stop-color="#68E9F1"/>
<stop offset="0.604167" stop-color="#86AFFF"/>
<stop offset="1" stop-color="#9492FF"/>
</radialGradient>
<linearGradient id="paint4_linear-280000" x1="52.0459" y1="33.3945" x2="52.0459" y2="51.5047" gradientUnits="userSpaceOnUse">
<stop stop-color="#FD91FF"/>
<stop offset="0.34375" stop-color="#A0A8FF"/>
<stop offset="0.947005" stop-color="#C9F2FF"/>
</linearGradient>
</defs>
</svg>